<svg data-v-0dd9719b="" version="1.0" xmlns="http://www.w3.org/2000/svg" xmlns:xlink="http://www.w3.org/1999/xlink" width="100%" height="100%" viewBox="0 0 340.000000 250.000000" preserveAspectRatio="xMidYMid meet" color-interpolation-filters="sRGB" style="margin: auto;"> <rect data-v-0dd9719b="" x="0" y="0" width="100%" height="100%" fill="#ffffff" fill-opacity="1" class="background"></rect> <rect data-v-0dd9719b="" x="0" y="0" width="100%" height="100%" fill="url(#watermark)" fill-opacity="1" class="watermarklayer"></rect> <g data-v-0dd9719b="" fill="#1c085d" class="icon-text-wrapper icon-svg-group iconsvg" transform="translate(47.33213806152344,98.98971939086914)"><g class="iconsvg-imagesvg" transform="translate(0,0)"><g><rect fill="#1c085d" fill-opacity="0" stroke-width="2" x="0" y="0" width="60" height="52.02056546354659" class="image-rect"></rect> <svg filter="url(#colors6076210162)" x="0" y="0" width="60" height="52.02056546354659" filtersec="colorsf2979182232" class="image-svg-svg primary" style="overflow: visible;"><svg xmlns="http://www.w3.org/2000/svg" viewBox="-0.04922000000000004 -0.0020199999999999108 95.69923 83.50404"><path d="M47.8 19s-9.5-7.8-1-11.7c.1 0 .2-.1.3-.1 2.8-.4 5.2 1.8 5.2 4.5 0 3.5-4.5 7.3-4.5 7.3zM24 22.8c-2.2-1.2-4.9-.5-6.2 1.7-1.2 2.2-.5 4.9 1.7 6.2 3.1 1.8 8.6-.3 8.6-.3s-1-5.8-4.1-7.6zm-4.5 30.1c-2.2 1.2-2.9 4-1.7 6.2s4 2.9 6.2 1.7c3.1-1.8 4.1-7.6 4.1-7.6s-5.5-2.1-8.6-.3zm23.8 19c0 2.7 2.4 4.9 5.2 4.5.1 0 .2 0 .3-.1 8.5-3.8-1-11.7-1-11.7s-4.5 3.7-4.5 7.3zm28.3-11.2c2.2 1.2 4.9.5 6.2-1.7 1.2-2.2.5-4.9-1.7-6.2-3.1-1.8-8.6.3-8.6.3s1 5.9 4.1 7.6zm4.5-30.1c2.2-1.2 2.9-4 1.7-6.2s-4-2.9-6.2-1.7c-3.1 1.8-4.1 7.6-4.1 7.6s5.5 2.1 8.6.3zM69.9 2.1c.5-.3 1.2.1 1.2.7-.8 12.2-10.9 21.9-23.3 21.9S25.3 15 24.5 2.8c0-.6.7-1 1.2-.7C35.9 8.9 39.2 22.5 33 33.2 26.8 44 13.4 47.9 2.4 42.5a.77.77 0 0 1 0-1.4c10.9-5.5 24.4-1.5 30.6 9.2 6.2 10.7 2.9 24.4-7.3 31.1-.5.3-1.2-.1-1.2-.7.7-12.2 10.9-21.9 23.3-21.9s22.5 9.7 23.3 21.9c0 .6-.7 1-1.2.7-10.2-6.8-13.5-20.4-7.3-31.1 6.2-10.7 19.6-14.7 30.6-9.2.6.3.6 1.1 0 1.4C82.3 48 68.8 44 62.6 33.3c-6.2-10.8-2.9-24.4 7.3-31.2z" fill="none" stroke="#333" stroke-width="4" stroke-miterlimit="10"></path></svg></svg> <defs><filter id="colors6076210162"><feColorMatrix type="matrix" values="0 0 0 0 0.91796875  0 0 0 0 0  0 0 0 0 0.10546875  0 0 0 1 0" class="icon-fecolormatrix"></feColorMatrix></filter> <filter id="colorsf2979182232"><feColorMatrix type="matrix" values="0 0 0 0 0.99609375  0 0 0 0 0.99609375  0 0 0 0 0.99609375  0 0 0 1 0" class="icon-fecolormatrix"></feColorMatrix></filter> <filter id="colorsb2053422794"><feColorMatrix type="matrix" values="0 0 0 0 0  0 0 0 0 0  0 0 0 0 0  0 0 0 1 0" class="icon-fecolormatrix"></feColorMatrix></filter></defs></g></g> <g transform="translate(67,20.45028018951416)"><g data-gra="path-name" fill-rule="" class="tp-name iconsvg-namesvg"><g transform="scale(1)"><g><path d="M2.24-12.3L12.81-12.3Q13.08-12.3 13.32-12.2 13.56-12.1 13.72-11.93 13.89-11.75 13.95-11.51 14.01-11.28 13.93-10.98L13.93-10.98 12.61-1.18 2.04-1.18Q1.77-1.18 1.53-1.28 1.3-1.38 1.13-1.55 0.96-1.73 0.9-1.97 0.84-2.22 0.92-2.5L0.92-2.5 2.24-12.3ZM10.16-10.41L5.64-10.41 4.7-3.06 9.04-3.06 10.16-10.41ZM16.48-12.3L28.74-12.3 28-6.64Q28-6.37 27.87-6.12 27.74-5.87 27.52-5.7 27.31-5.52 27.04-5.42 26.78-5.32 26.48-5.32L26.48-5.32 24.03-5.32 28-1.18 23.85-1.18 20.08-5.32 19.51-1.18 15.74-1.18 17.05-11.55 16.48-12.3ZM24.79-10.41L20.65-10.41 20.26-7.21 24.42-7.21 24.79-10.41ZM31.36-12.3L35.89-12.3 34.18-1.18 30.61-1.18 31.93-11.55 31.36-12.3ZM46.33-10.41L38.78-10.41 39.16-12.3 51.04-12.3 50.67-10.41 42.38-3.06 49.72-3.06 49.53-1.18 37.47-1.18 37.84-3.06 46.33-10.41ZM56.25-12.3L63.99-12.3 65.48-1.18 62.1-1.18 61.71-4.2 56.99-4.2 55.68-1.18 52.48-1.18 56.82-11.75 56.25-12.3ZM60.96-10.41L59.65-10.41 57.76-6.09 61.53-6.09 60.96-10.41ZM67.96-12.3L80.61-12.3 80.04-7.78 78.9-7.03 79.84-6.27 79.27-2.5Q79.14-1.93 78.74-1.55 78.35-1.18 77.78-1.18L77.78-1.18 67.21-1.18 68.53-11.55 67.96-12.3ZM76.64-10.41L72.12-10.41 71.93-7.98 76.27-7.98 76.64-10.41ZM76.07-6.09L71.55-6.09 71.18-3.06 75.7-3.06 76.07-6.09ZM86.11-12.3L93.85-12.3 95.34-1.18 91.96-1.18 91.57-4.2 86.86-4.2 85.54-1.18 82.34-1.18 86.68-11.75 86.11-12.3ZM90.83-10.41L89.51-10.41 87.62-6.09 91.39-6.09 90.83-10.41ZM115.46-1.18L111.69-1.18 113.01-10.41 108.86-10.41 109.06-12.3 121.12-12.3 120.75-10.41 116.78-10.41 115.46-1.18ZM123.63-12.3L135.89-12.3 135.15-6.64Q135.15-6.37 135.02-6.12 134.89-5.87 134.68-5.7 134.46-5.52 134.19-5.42 133.93-5.32 133.63-5.32L133.63-5.32 131.18-5.32 135.15-1.18 131-1.18 127.23-5.32 126.66-1.18 122.89-1.18 124.2-11.55 123.63-12.3ZM131.94-10.41L127.8-10.41 127.41-7.21 131.57-7.21 131.94-10.41ZM141.39-12.3L149.14-12.3 150.63-1.18 147.25-1.18 146.86-4.2 142.14-4.2 140.83-1.18 137.62-1.18 141.96-11.75 141.39-12.3ZM146.11-10.41L144.79-10.41 142.91-6.09 146.68-6.09 146.11-10.41ZM153.1-12.3L165.76-12.3 164.42-2.5Q164.42-1.93 163.96-1.55 163.5-1.18 162.93-1.18L162.93-1.18 152.36-1.18 153.67-11.55 153.1-12.3ZM161.98-10.41L157.45-10.41 156.33-3.06 160.84-3.06 161.98-10.41ZM168.47-12.3L179.21-12.3 179.04-10.41 172.81-10.41 172.44-7.98 178.27-7.98 178.09-6.09 172.04-6.09 171.67-3.06 178.27-3.06 178.09-1.18 167.52-1.18 169.04-11.55 168.47-12.3Z" transform="translate(-0.8742857575416565, 12.300000190734863)"></path></g> <!----> <!----> <!----> <!----> <!----> <!----> <!----></g></g> <!----></g></g><defs v-gra="od"></defs></svg>